<?xml version="1.0" encoding="UTF-8" standalone="no"?>
<!DOCTYPE svg PUBLIC "-//W3C//DTD SVG 1.1//EN"
 "http://www.w3.org/Graphics/SVG/1.1/DTD/svg11.dtd">
<!-- Generated by graphviz version 2.40.1 (20161225.0304)
 -->
<!-- Title: G Pages: 1 -->
<svg width="193pt" height="194pt"
 viewBox="0.00 0.00 193.10 194.43" xmlns="http://www.w3.org/2000/svg" xmlns:xlink="http://www.w3.org/1999/xlink">
<g id="graph0" class="graph" transform="scale(1 1) rotate(0) translate(4 190.4264)">
<title>G</title><style>.edge>path:hover{stroke-width:8}</style>
<polygon fill="#ffffff" stroke="transparent" points="-4,4 -4,-190.4264 189.0964,-190.4264 189.0964,4 -4,4"/>
<!-- main -->
<g id="node1" class="node">
<title>main</title><style>.edge>path:hover{stroke-width:8}</style>
<ellipse fill="#a44646" stroke="#000000" cx="75.8406" cy="-18" rx="27" ry="18"/>
<text text-anchor="middle" x="75.8406" y="-15.5" font-family="Helvetica,sans-Serif" font-size="10.00" fill="#ffffff">main</text>
</g>
<!-- matplotlib -->
<g id="node2" class="node">
<title>matplotlib</title><style>.edge>path:hover{stroke-width:8}</style>
<ellipse fill="#31c431" stroke="#000000" cx="75.8406" cy="-90" rx="34.9638" ry="18"/>
<text text-anchor="middle" x="75.8406" y="-87.5" font-family="Helvetica,sans-Serif" font-size="10.00" fill="#000000">matplotlib</text>
</g>
<!-- matplotlib&#45;&gt;main -->
<g id="edge1" class="edge">
<title>matplotlib&#45;&gt;main</title><style>.edge>path:hover{stroke-width:8}</style>
<path fill="none" stroke="#000000" d="M75.8406,-71.8314C75.8406,-64.131 75.8406,-54.9743 75.8406,-46.4166"/>
<polygon fill="#31c431" stroke="#000000" points="79.3407,-46.4132 75.8406,-36.4133 72.3407,-46.4133 79.3407,-46.4132"/>
</g>
<!-- matplotlib_pyplot -->
<g id="node3" class="node">
<title>matplotlib_pyplot</title><style>.edge>path:hover{stroke-width:8}</style>
<ellipse fill="#40c040" stroke="#000000" cx="43.8406" cy="-165.2132" rx="43.6818" ry="21.4286"/>
<text text-anchor="middle" x="43.8406" y="-168.2132" font-family="Helvetica,sans-Serif" font-size="10.00" fill="#000000">matplotlib.</text>
<text text-anchor="middle" x="43.8406" y="-157.2132" font-family="Helvetica,sans-Serif" font-size="10.00" fill="#000000">pyplot</text>
</g>
<!-- matplotlib_pyplot&#45;&gt;main -->
<g id="edge2" class="edge">
<title>matplotlib_pyplot&#45;&gt;main</title><style>.edge>path:hover{stroke-width:8}</style>
<path fill="none" stroke="#000000" d="M35.7519,-144.2609C29.5499,-124.9722 23.3624,-95.827 31.8406,-72 36.0422,-60.1919 44.0535,-49.0941 52.101,-40.0668"/>
<polygon fill="#40c040" stroke="#000000" points="54.7452,-42.365 59.0877,-32.701 49.6664,-37.5477 54.7452,-42.365"/>
</g>
<!-- matplotlib_pyplot&#45;&gt;matplotlib -->
<g id="edge3" class="edge">
<title>matplotlib_pyplot&#45;&gt;matplotlib</title><style>.edge>path:hover{stroke-width:8}</style>
<path fill="none" stroke="#000000" d="M52.7544,-144.2621C56.3398,-135.835 60.5201,-126.0096 64.3307,-117.0531"/>
<polygon fill="#40c040" stroke="#000000" points="67.5804,-118.3549 68.2748,-107.7828 61.1391,-115.6143 67.5804,-118.3549"/>
</g>
<!-- pandas -->
<g id="node4" class="node">
<title>pandas</title><style>.edge>path:hover{stroke-width:8}</style>
<ellipse fill="#4040c0" stroke="#000000" cx="156.8406" cy="-90" rx="28.0137" ry="18"/>
<text text-anchor="middle" x="156.8406" y="-87.5" font-family="Helvetica,sans-Serif" font-size="10.00" fill="#ffffff">pandas</text>
</g>
<!-- pandas&#45;&gt;main -->
<g id="edge4" class="edge">
<title>pandas&#45;&gt;main</title><style>.edge>path:hover{stroke-width:8}</style>
<path fill="none" stroke="#000000" d="M140.0574,-75.0816C128.3916,-64.712 112.6724,-50.7393 99.7063,-39.2139"/>
<polygon fill="#4040c0" stroke="#000000" points="101.849,-36.4358 92.0496,-32.408 97.1985,-41.6676 101.849,-36.4358"/>
</g>
</g>
</svg>
